<svg id="Layer_1" xmlns="http://www.w3.org/2000/svg" viewBox="0 0 306.3 82" width="146" height="40"><style>.st0{fill:url(#App-Icon-Shape_1_)}.st1{fill:#fff}</style><g id="Group-Copy-2" transform="translate(1 1)"><linearGradient id="App-Icon-Shape_1_" gradientUnits="userSpaceOnUse" x1="-124.917" y1="287.421" x2="-124.917" y2="288.387" gradientTransform="matrix(80 0 0 -80 10034 23072)"><stop offset="0" stop-color="#ff5208"/><stop offset="1" stop-color="#ffa408"/></linearGradient><path id="App-Icon-Shape" class="st0" d="M60.9 1c11.2 0 18.4 7.3 18.4 18.4v40.5c0 11.2-7.3 18.4-18.4 18.4H20.4C9.2 78.3 2 71.1 2 59.9V19.4C2 8.3 9.2 1 20.4 1h40.5z"/><path id="logo" class="st1" d="M13.6 53.2v-8.5L26.4 32h22l19.3-19.3v8.5L51.1 37.7h-22L13.6 53.2zm0 13.5v-8.5l17-17h22l15.1-15.1v8.5L55 47.4H33L13.6 66.7z"/></g><path id="Libertex-Copy" class="st1" d="M110.9 52.6H127v4.9h-22.4V21.9h6.2v30.7zm27.2 4.9h-6V31.1h6v26.4zm-6.3-33.3c0-.9.3-1.7.9-2.3.6-.6 1.4-.9 2.5-.9s1.9.3 2.5.9c.6.6.9 1.4.9 2.3 0 .9-.3 1.6-.9 2.2-.6.6-1.4.9-2.5.9s-1.9-.3-2.5-.9c-.7-.6-.9-1.3-.9-2.2zm36.5 20.4c0 4.1-.9 7.4-2.8 9.8-1.8 2.4-4.4 3.6-7.6 3.6-3.1 0-5.5-1.1-7.2-3.4l-.3 2.9H145V19.9h6v13.7c1.7-2 4-3 6.9-3 3.2 0 5.8 1.2 7.6 3.6 1.8 2.4 2.8 5.8 2.8 10.1v.3zm-5.9-.5c0-2.9-.5-5-1.5-6.5-1-1.4-2.5-2.2-4.4-2.2-2.6 0-4.4 1.1-5.4 3.4v10.9c1.1 2.3 2.9 3.5 5.5 3.5 1.9 0 3.3-.7 4.3-2.1 1-1.4 1.5-3.5 1.6-6.3v-.7zM185.5 58c-3.8 0-6.8-1.2-9.2-3.6-2.3-2.4-3.5-5.5-3.5-9.5v-.7c0-2.6.5-5 1.5-7.1 1-2.1 2.5-3.7 4.3-4.9 1.8-1.2 3.9-1.7 6.2-1.7 3.6 0 6.4 1.2 8.4 3.5s3 5.6 3 9.8v2.4h-17.3c.2 2.2.9 3.9 2.2 5.2 1.3 1.3 2.9 1.9 4.8 1.9 2.7 0 4.9-1.1 6.7-3.3l3.2 3.1c-1.1 1.6-2.5 2.8-4.2 3.7-1.9.8-3.9 1.2-6.1 1.2zm-.7-22.7c-1.6 0-3 .6-4 1.7s-1.6 2.7-1.9 4.8h11.3v-.4c-.1-2-.7-3.5-1.6-4.5-.9-1.1-2.2-1.6-3.8-1.6zm30.3 1.2c-.8-.1-1.6-.2-2.4-.2-2.7 0-4.6 1-5.5 3.1v18.1h-6V31.1h5.7l.1 3c1.4-2.3 3.4-3.5 6-3.5.8 0 1.6.1 2.1.3v5.6zm13-11.9V31h4.7v4.4h-4.7v14.8c0 1 .2 1.7.6 2.2.4.4 1.1.7 2.1.7.7 0 1.4-.1 2.1-.2v4.6c-1.4.4-2.7.6-3.9.6-4.6 0-6.9-2.5-6.9-7.6v-15h-4.4v-4.4h4.4v-6.4h6zM249.5 58c-3.8 0-6.8-1.2-9.2-3.6-2.3-2.4-3.5-5.5-3.5-9.5v-.7c0-2.6.5-5 1.5-7.1 1-2.1 2.5-3.7 4.3-4.9 1.8-1.2 3.9-1.7 6.2-1.7 3.6 0 6.4 1.2 8.4 3.5s3 5.6 3 9.8v2.4h-17.3c.2 2.2.9 3.9 2.2 5.2 1.3 1.3 2.9 1.9 4.8 1.9 2.7 0 4.9-1.1 6.7-3.3l3.2 3.1c-1.1 1.6-2.5 2.8-4.2 3.7-1.9.8-3.9 1.2-6.1 1.2zm-.7-22.7c-1.6 0-3 .6-4 1.7s-1.6 2.7-1.9 4.8h11.3v-.4c-.1-2-.7-3.5-1.6-4.5-.9-1.1-2.1-1.6-3.8-1.6zm26 4.5l5-8.7h6.6l-8.1 13.1 8.4 13.4h-6.6l-5.3-9.1-5.3 9.1H263l8.4-13.4-8.1-13.1h6.6l4.9 8.7z"/></svg>