<svg version="1.1" id="Layer_1" xmlns="http://www.w3.org/2000/svg" xmlns:xlink="http://www.w3.org/1999/xlink" x="0px" y="0px"
	 viewBox="0 0 306.3 82" style="enable-background:new 0 0 306.3 82;" xml:space="preserve" width="146" height="40">
<style type="text/css">
	.st0{fill:url(#App-Icon-Shape_1_);}
	.st1{fill:#FFFFFF;}
</style>
<g id="Group-Copy-2" transform="translate(1.000000, 1.000000)">
	
		<linearGradient id="App-Icon-Shape_1_" gradientUnits="userSpaceOnUse" x1="-124.9167" y1="287.4208" x2="-124.9167" y2="288.3875" gradientTransform="matrix(80 0 0 -80 10034 23072)">
		<stop  offset="0" style="stop-color:#FF5208"/>
		<stop  offset="1" style="stop-color:#FFA408"/>
	</linearGradient>
	<path id="App-Icon-Shape" class="st0" d="M60.9,1c11.2,0,18.4,7.3,18.4,18.4v40.5c0,11.2-7.3,18.4-18.4,18.4H20.4
		C9.2,78.3,2,71.1,2,59.9V19.4C2,8.3,9.2,1,20.4,1H60.9z"/>
	<path id="logo" class="st1" d="M13.6,53.2v-8.5l12.8-12.7l22,0l19.3-19.3v8.5L51.1,37.7h-22L13.6,53.2L13.6,53.2z M13.6,66.7v-8.5
		l17-17l22,0l15.1-15.1v8.5L55,47.4H33L13.6,66.7L13.6,66.7z"/>
</g>
<path id="Libertex-Copy" class="st1" d="M110.9,52.6H127v4.9h-22.4V21.9h6.2V52.6z M138.1,57.5h-6V31.1h6V57.5z M131.8,24.2
	c0-0.9,0.3-1.7,0.9-2.3c0.6-0.6,1.4-0.9,2.5-0.9c1.1,0,1.9,0.3,2.5,0.9c0.6,0.6,0.9,1.4,0.9,2.3c0,0.9-0.3,1.6-0.9,2.2
	c-0.6,0.6-1.4,0.9-2.5,0.9c-1.1,0-1.9-0.3-2.5-0.9C132,25.8,131.8,25.1,131.8,24.2L131.8,24.2z M168.3,44.6c0,4.1-0.9,7.4-2.8,9.8
	c-1.8,2.4-4.4,3.6-7.6,3.6c-3.1,0-5.5-1.1-7.2-3.4l-0.3,2.9h-5.4V19.9h6v13.7c1.7-2,4-3,6.9-3c3.2,0,5.8,1.2,7.6,3.6
	c1.8,2.4,2.8,5.8,2.8,10.1V44.6z M162.4,44.1c0-2.9-0.5-5-1.5-6.5c-1-1.4-2.5-2.2-4.4-2.2c-2.6,0-4.4,1.1-5.4,3.4v10.9
	c1.1,2.3,2.9,3.5,5.5,3.5c1.9,0,3.3-0.7,4.3-2.1c1-1.4,1.5-3.5,1.6-6.3V44.1z M185.5,58c-3.8,0-6.8-1.2-9.2-3.6
	c-2.3-2.4-3.5-5.5-3.5-9.5v-0.7c0-2.6,0.5-5,1.5-7.1c1-2.1,2.5-3.7,4.3-4.9c1.8-1.2,3.9-1.7,6.2-1.7c3.6,0,6.4,1.2,8.4,3.5
	c2,2.3,3,5.6,3,9.8v2.4h-17.3c0.2,2.2,0.9,3.9,2.2,5.2c1.3,1.3,2.9,1.9,4.8,1.9c2.7,0,4.9-1.1,6.7-3.3l3.2,3.1
	c-1.1,1.6-2.5,2.8-4.2,3.7C189.7,57.6,187.7,58,185.5,58L185.5,58z M184.8,35.3c-1.6,0-3,0.6-4,1.7c-1,1.1-1.6,2.7-1.9,4.8h11.3
	v-0.4c-0.1-2-0.7-3.5-1.6-4.5C187.7,35.8,186.4,35.3,184.8,35.3L184.8,35.3z M215.1,36.5c-0.8-0.1-1.6-0.2-2.4-0.2
	c-2.7,0-4.6,1-5.5,3.1v18.1h-6V31.1h5.7l0.1,3c1.4-2.3,3.4-3.5,6-3.5c0.8,0,1.6,0.1,2.1,0.3L215.1,36.5z M228.1,24.6v6.4h4.7v4.4
	h-4.7v14.8c0,1,0.2,1.7,0.6,2.2c0.4,0.4,1.1,0.7,2.1,0.7c0.7,0,1.4-0.1,2.1-0.2v4.6c-1.4,0.4-2.7,0.6-3.9,0.6
	c-4.6,0-6.9-2.5-6.9-7.6v-15h-4.4v-4.4h4.4v-6.4H228.1z M249.5,58c-3.8,0-6.8-1.2-9.2-3.6c-2.3-2.4-3.5-5.5-3.5-9.5v-0.7
	c0-2.6,0.5-5,1.5-7.1c1-2.1,2.5-3.7,4.3-4.9c1.8-1.2,3.9-1.7,6.2-1.7c3.6,0,6.4,1.2,8.4,3.5c2,2.3,3,5.6,3,9.8v2.4h-17.3
	c0.2,2.2,0.9,3.9,2.2,5.2c1.3,1.3,2.9,1.9,4.8,1.9c2.7,0,4.9-1.1,6.7-3.3l3.2,3.1c-1.1,1.6-2.5,2.8-4.2,3.7
	C253.7,57.6,251.7,58,249.5,58L249.5,58z M248.8,35.3c-1.6,0-3,0.6-4,1.7c-1,1.1-1.6,2.7-1.9,4.8h11.3v-0.4c-0.1-2-0.7-3.5-1.6-4.5
	C251.7,35.8,250.5,35.3,248.8,35.3L248.8,35.3z M274.8,39.8l5-8.7h6.6l-8.1,13.1l8.4,13.4h-6.6l-5.3-9.1l-5.3,9.1H263l8.4-13.4
	l-8.1-13.1h6.6L274.8,39.8z"/>
</svg>
